<svg xmlns="http://www.w3.org/2000/svg" viewBox="0 0 512 512">
  <rect width="512" height="512" rx="0" fill="#EAECEF"/>
  <g stroke="#9CA3AF" stroke-width="1.5" stroke-linecap="round">
    <line x1="60.6" y1="98.2" x2="67.2" y2="94.9"/>
    <line x1="60.6" y1="98.2" x2="74.0" y2="108.9"/>
    <line x1="60.6" y1="98.2" x2="104.0" y2="86.9"/>
    <line x1="101.6" y1="102.8" x2="67.2" y2="94.9"/>
    <line x1="101.6" y1="102.8" x2="136.1" y2="118.3"/>
    <line x1="101.6" y1="102.8" x2="124.1" y2="113.3"/>
    <line x1="101.6" y1="102.8" x2="135.4" y2="111.5"/>
    <line x1="101.6" y1="102.8" x2="74.0" y2="108.9"/>
    <line x1="101.6" y1="102.8" x2="112.7" y2="77.7"/>
    <line x1="101.6" y1="102.8" x2="104.0" y2="86.9"/>
    <line x1="101.6" y1="102.8" x2="145.3" y2="92.2"/>
    <line x1="101.6" y1="102.8" x2="109.6" y2="108.8"/>
    <line x1="101.6" y1="102.8" x2="108.4" y2="138.3"/>
    <line x1="67.2" y1="94.9" x2="124.1" y2="113.3"/>
    <line x1="67.2" y1="94.9" x2="135.4" y2="111.5"/>
    <line x1="67.2" y1="94.9" x2="74.0" y2="108.9"/>
    <line x1="67.2" y1="94.9" x2="145.2" y2="101.0"/>
    <line x1="67.2" y1="94.9" x2="104.0" y2="86.9"/>
    <line x1="67.2" y1="94.9" x2="145.3" y2="92.2"/>
    <line x1="69.1" y1="164.9" x2="135.4" y2="111.5"/>
    <line x1="69.1" y1="164.9" x2="99.5" y2="178.6"/>
    <line x1="69.1" y1="164.9" x2="85.1" y2="163.6"/>
    <line x1="69.1" y1="164.9" x2="135.8" y2="174.3"/>
    <line x1="69.1" y1="164.9" x2="95.2" y2="173.3"/>
    <line x1="136.1" y1="118.3" x2="124.1" y2="113.3"/>
    <line x1="136.1" y1="118.3" x2="135.4" y2="111.5"/>
    <line x1="136.1" y1="118.3" x2="115.0" y2="115.8"/>
    <line x1="136.1" y1="118.3" x2="145.3" y2="92.2"/>
    <line x1="136.1" y1="118.3" x2="109.6" y2="108.8"/>
    <line x1="136.1" y1="118.3" x2="99.5" y2="178.6"/>
    <line x1="136.1" y1="118.3" x2="108.4" y2="138.3"/>
    <line x1="136.1" y1="118.3" x2="128.2" y2="58.4"/>
    <line x1="136.1" y1="118.3" x2="104.8" y2="116.8"/>
    <line x1="136.1" y1="118.3" x2="138.1" y2="126.6"/>
    <line x1="124.1" y1="113.3" x2="135.4" y2="111.5"/>
    <line x1="124.1" y1="113.3" x2="124.9" y2="153.9"/>
    <line x1="124.1" y1="113.3" x2="145.2" y2="101.0"/>
    <line x1="124.1" y1="113.3" x2="112.7" y2="77.7"/>
    <line x1="124.1" y1="113.3" x2="104.0" y2="86.9"/>
    <line x1="124.1" y1="113.3" x2="109.6" y2="108.8"/>
    <line x1="124.1" y1="113.3" x2="99.5" y2="178.6"/>
    <line x1="124.1" y1="113.3" x2="85.1" y2="163.6"/>
    <line x1="124.1" y1="113.3" x2="108.4" y2="138.3"/>
    <line x1="124.1" y1="113.3" x2="138.1" y2="126.6"/>
    <line x1="124.1" y1="113.3" x2="125.7" y2="257.0"/>
    <line x1="135.4" y1="111.5" x2="74.0" y2="108.9"/>
    <line x1="135.4" y1="111.5" x2="145.2" y2="101.0"/>
    <line x1="135.4" y1="111.5" x2="115.0" y2="115.8"/>
    <line x1="135.4" y1="111.5" x2="144.1" y2="95.0"/>
    <line x1="135.4" y1="111.5" x2="109.6" y2="108.8"/>
    <line x1="135.4" y1="111.5" x2="108.4" y2="138.3"/>
    <line x1="135.4" y1="111.5" x2="104.8" y2="116.8"/>
    <line x1="135.4" y1="111.5" x2="138.1" y2="126.6"/>
    <line x1="74.0" y1="108.9" x2="104.0" y2="86.9"/>
    <line x1="74.0" y1="108.9" x2="109.6" y2="108.8"/>
    <line x1="74.0" y1="108.9" x2="95.2" y2="173.3"/>
    <line x1="74.0" y1="108.9" x2="138.1" y2="126.6"/>
    <line x1="122.7" y1="50.4" x2="124.9" y2="153.9"/>
    <line x1="122.7" y1="50.4" x2="115.0" y2="115.8"/>
    <line x1="122.7" y1="50.4" x2="112.7" y2="77.7"/>
    <line x1="122.7" y1="50.4" x2="128.2" y2="58.4"/>
    <line x1="122.7" y1="50.4" x2="138.1" y2="126.6"/>
    <line x1="124.9" y1="153.9" x2="115.0" y2="115.8"/>
    <line x1="124.9" y1="153.9" x2="144.1" y2="95.0"/>
    <line x1="124.9" y1="153.9" x2="99.5" y2="178.6"/>
    <line x1="124.9" y1="153.9" x2="85.1" y2="163.6"/>
    <line x1="124.9" y1="153.9" x2="135.8" y2="174.3"/>
    <line x1="124.9" y1="153.9" x2="108.4" y2="138.3"/>
    <line x1="124.9" y1="153.9" x2="95.2" y2="173.3"/>
    <line x1="124.9" y1="153.9" x2="138.1" y2="126.6"/>
    <line x1="124.9" y1="153.9" x2="93.1" y2="275.4"/>
    <line x1="145.2" y1="101.0" x2="115.0" y2="115.8"/>
    <line x1="145.2" y1="101.0" x2="112.7" y2="77.7"/>
    <line x1="145.2" y1="101.0" x2="145.3" y2="92.2"/>
    <line x1="145.2" y1="101.0" x2="135.8" y2="174.3"/>
    <line x1="145.2" y1="101.0" x2="138.1" y2="126.6"/>
    <line x1="115.0" y1="115.8" x2="112.7" y2="77.7"/>
    <line x1="115.0" y1="115.8" x2="104.0" y2="86.9"/>
    <line x1="115.0" y1="115.8" x2="144.1" y2="95.0"/>
    <line x1="115.0" y1="115.8" x2="145.3" y2="92.2"/>
    <line x1="115.0" y1="115.8" x2="135.8" y2="174.3"/>
    <line x1="115.0" y1="115.8" x2="108.4" y2="138.3"/>
    <line x1="115.0" y1="115.8" x2="104.8" y2="116.8"/>
    <line x1="112.7" y1="77.7" x2="104.0" y2="86.9"/>
    <line x1="112.7" y1="77.7" x2="144.1" y2="95.0"/>
    <line x1="112.7" y1="77.7" x2="145.3" y2="92.2"/>
    <line x1="112.7" y1="77.7" x2="95.2" y2="173.3"/>
    <line x1="112.7" y1="77.7" x2="128.2" y2="58.4"/>
    <line x1="104.0" y1="86.9" x2="85.1" y2="163.6"/>
    <line x1="104.0" y1="86.9" x2="108.4" y2="138.3"/>
    <line x1="104.0" y1="86.9" x2="104.8" y2="116.8"/>
    <line x1="144.1" y1="95.0" x2="145.3" y2="92.2"/>
    <line x1="144.1" y1="95.0" x2="109.6" y2="108.8"/>
    <line x1="144.1" y1="95.0" x2="128.2" y2="58.4"/>
    <line x1="144.1" y1="95.0" x2="104.8" y2="116.8"/>
    <line x1="144.1" y1="95.0" x2="138.1" y2="126.6"/>
    <line x1="145.3" y1="92.2" x2="109.6" y2="108.8"/>
    <line x1="145.3" y1="92.2" x2="128.2" y2="58.4"/>
    <line x1="145.3" y1="92.2" x2="104.8" y2="116.8"/>
    <line x1="145.3" y1="92.2" x2="138.1" y2="126.6"/>
    <line x1="145.3" y1="92.2" x2="58.0" y2="233.8"/>
    <line x1="109.6" y1="108.8" x2="108.4" y2="138.3"/>
    <line x1="109.6" y1="108.8" x2="104.8" y2="116.8"/>
    <line x1="109.6" y1="108.8" x2="138.1" y2="126.6"/>
    <line x1="109.6" y1="108.8" x2="55.1" y2="261.0"/>
    <line x1="99.5" y1="178.6" x2="85.1" y2="163.6"/>
    <line x1="99.5" y1="178.6" x2="135.8" y2="174.3"/>
    <line x1="99.5" y1="178.6" x2="108.4" y2="138.3"/>
    <line x1="99.5" y1="178.6" x2="68.8" y2="265.2"/>
    <line x1="99.5" y1="178.6" x2="87.3" y2="248.9"/>
    <line x1="99.5" y1="178.6" x2="62.8" y2="267.7"/>
    <line x1="85.1" y1="163.6" x2="108.4" y2="138.3"/>
    <line x1="85.1" y1="163.6" x2="95.2" y2="173.3"/>
    <line x1="85.1" y1="163.6" x2="58.0" y2="233.8"/>
    <line x1="108.4" y1="138.3" x2="104.8" y2="116.8"/>
    <line x1="108.4" y1="138.3" x2="138.1" y2="126.6"/>
    <line x1="108.4" y1="138.3" x2="201.2" y2="420.0"/>
    <line x1="108.4" y1="138.3" x2="58.0" y2="233.8"/>
    <line x1="95.2" y1="173.3" x2="62.8" y2="267.7"/>
    <line x1="104.8" y1="116.8" x2="138.1" y2="126.6"/>
    <line x1="104.8" y1="116.8" x2="58.0" y2="233.8"/>
    <line x1="381.4" y1="100.6" x2="350.0" y2="48.4"/>
    <line x1="381.4" y1="100.6" x2="391.7" y2="103.6"/>
    <line x1="381.4" y1="100.6" x2="366.2" y2="81.1"/>
    <line x1="381.4" y1="100.6" x2="382.2" y2="101.5"/>
    <line x1="381.4" y1="100.6" x2="366.6" y2="93.0"/>
    <line x1="381.4" y1="100.6" x2="389.6" y2="51.4"/>
    <line x1="381.4" y1="100.6" x2="396.2" y2="106.4"/>
    <line x1="381.4" y1="100.6" x2="406.4" y2="109.0"/>
    <line x1="381.4" y1="100.6" x2="398.7" y2="127.3"/>
    <line x1="381.4" y1="100.6" x2="403.2" y2="80.3"/>
    <line x1="381.4" y1="100.6" x2="379.8" y2="123.4"/>
    <line x1="381.4" y1="100.6" x2="249.4" y2="235.6"/>
    <line x1="440.9" y1="77.9" x2="389.6" y2="51.4"/>
    <line x1="440.9" y1="77.9" x2="427.5" y2="82.4"/>
    <line x1="440.9" y1="77.9" x2="424.6" y2="67.5"/>
    <line x1="440.9" y1="77.9" x2="377.4" y2="42.8"/>
    <line x1="440.9" y1="77.9" x2="420.1" y2="48.8"/>
    <line x1="440.9" y1="77.9" x2="403.2" y2="80.3"/>
    <line x1="440.9" y1="77.9" x2="256.4" y2="247.8"/>
    <line x1="350.0" y1="48.4" x2="366.2" y2="81.1"/>
    <line x1="350.0" y1="48.4" x2="366.6" y2="93.0"/>
    <line x1="350.0" y1="48.4" x2="322.0" y2="110.9"/>
    <line x1="350.0" y1="48.4" x2="328.8" y2="109.3"/>
    <line x1="391.7" y1="103.6" x2="366.2" y2="81.1"/>
    <line x1="391.7" y1="103.6" x2="382.2" y2="101.5"/>
    <line x1="391.7" y1="103.6" x2="366.6" y2="93.0"/>
    <line x1="391.7" y1="103.6" x2="310.1" y2="71.3"/>
    <line x1="391.7" y1="103.6" x2="396.2" y2="106.4"/>
    <line x1="391.7" y1="103.6" x2="378.0" y2="100.0"/>
    <line x1="391.7" y1="103.6" x2="367.5" y2="100.7"/>
    <line x1="391.7" y1="103.6" x2="406.4" y2="109.0"/>
    <line x1="391.7" y1="103.6" x2="403.2" y2="80.3"/>
    <line x1="391.7" y1="103.6" x2="328.8" y2="109.3"/>
    <line x1="379.7" y1="61.1" x2="310.1" y2="71.3"/>
    <line x1="379.7" y1="61.1" x2="322.0" y2="110.9"/>
    <line x1="379.7" y1="61.1" x2="377.4" y2="42.8"/>
    <line x1="379.7" y1="61.1" x2="415.6" y2="55.5"/>
    <line x1="379.7" y1="61.1" x2="403.2" y2="80.3"/>
    <line x1="379.7" y1="61.1" x2="379.8" y2="123.4"/>
    <line x1="366.2" y1="81.1" x2="382.2" y2="101.5"/>
    <line x1="366.2" y1="81.1" x2="389.6" y2="51.4"/>
    <line x1="366.2" y1="81.1" x2="393.0" y2="110.6"/>
    <line x1="366.2" y1="81.1" x2="396.2" y2="106.4"/>
    <line x1="366.2" y1="81.1" x2="378.0" y2="100.0"/>
    <line x1="366.2" y1="81.1" x2="427.5" y2="82.4"/>
    <line x1="366.2" y1="81.1" x2="367.5" y2="100.7"/>
    <line x1="366.2" y1="81.1" x2="336.4" y2="128.1"/>
    <line x1="366.2" y1="81.1" x2="376.2" y2="89.0"/>
    <line x1="366.2" y1="81.1" x2="403.2" y2="80.3"/>
    <line x1="382.2" y1="101.5" x2="366.6" y2="93.0"/>
    <line x1="382.2" y1="101.5" x2="406.4" y2="109.0"/>
    <line x1="382.2" y1="101.5" x2="398.7" y2="127.3"/>
    <line x1="382.2" y1="101.5" x2="376.2" y2="89.0"/>
    <line x1="382.2" y1="101.5" x2="403.2" y2="80.3"/>
    <line x1="382.2" y1="101.5" x2="379.8" y2="123.4"/>
    <line x1="366.6" y1="93.0" x2="396.2" y2="106.4"/>
    <line x1="366.6" y1="93.0" x2="367.5" y2="100.7"/>
    <line x1="366.6" y1="93.0" x2="336.4" y2="128.1"/>
    <line x1="366.6" y1="93.0" x2="376.2" y2="89.0"/>
    <line x1="366.6" y1="93.0" x2="379.8" y2="123.4"/>
    <line x1="325.3" y1="103.8" x2="396.2" y2="106.4"/>
    <line x1="325.3" y1="103.8" x2="322.0" y2="110.9"/>
    <line x1="325.3" y1="103.8" x2="367.5" y2="100.7"/>
    <line x1="325.3" y1="103.8" x2="327.6" y2="111.8"/>
    <line x1="325.3" y1="103.8" x2="336.4" y2="128.1"/>
    <line x1="325.3" y1="103.8" x2="328.8" y2="109.3"/>
    <line x1="450.8" y1="93.3" x2="393.0" y2="110.6"/>
    <line x1="450.8" y1="93.3" x2="427.5" y2="82.4"/>
    <line x1="450.8" y1="93.3" x2="424.6" y2="67.5"/>
    <line x1="450.8" y1="93.3" x2="398.7" y2="127.3"/>
    <line x1="450.8" y1="93.3" x2="328.8" y2="109.3"/>
    <line x1="389.6" y1="51.4" x2="396.2" y2="106.4"/>
    <line x1="389.6" y1="51.4" x2="427.5" y2="82.4"/>
    <line x1="389.6" y1="51.4" x2="424.6" y2="67.5"/>
    <line x1="389.6" y1="51.4" x2="377.4" y2="42.8"/>
    <line x1="389.6" y1="51.4" x2="398.7" y2="127.3"/>
    <line x1="389.6" y1="51.4" x2="415.6" y2="55.5"/>
    <line x1="389.6" y1="51.4" x2="376.2" y2="89.0"/>
    <line x1="389.6" y1="51.4" x2="403.2" y2="80.3"/>
    <line x1="310.1" y1="71.3" x2="396.2" y2="106.4"/>
    <line x1="393.0" y1="110.6" x2="396.2" y2="106.4"/>
    <line x1="393.0" y1="110.6" x2="378.0" y2="100.0"/>
    <line x1="393.0" y1="110.6" x2="367.5" y2="100.7"/>
    <line x1="393.0" y1="110.6" x2="406.4" y2="109.0"/>
    <line x1="393.0" y1="110.6" x2="403.2" y2="80.3"/>
    <line x1="393.0" y1="110.6" x2="379.8" y2="123.4"/>
    <line x1="393.0" y1="110.6" x2="328.8" y2="109.3"/>
    <line x1="396.2" y1="106.4" x2="378.0" y2="100.0"/>
    <line x1="396.2" y1="106.4" x2="427.5" y2="82.4"/>
    <line x1="396.2" y1="106.4" x2="398.7" y2="127.3"/>
    <line x1="396.2" y1="106.4" x2="376.2" y2="89.0"/>
    <line x1="396.2" y1="106.4" x2="403.2" y2="80.3"/>
    <line x1="378.0" y1="100.0" x2="367.5" y2="100.7"/>
    <line x1="378.0" y1="100.0" x2="406.4" y2="109.0"/>
    <line x1="378.0" y1="100.0" x2="336.4" y2="128.1"/>
    <line x1="378.0" y1="100.0" x2="379.8" y2="123.4"/>
    <line x1="378.0" y1="100.0" x2="328.8" y2="109.3"/>
    <line x1="427.5" y1="82.4" x2="424.6" y2="67.5"/>
    <line x1="427.5" y1="82.4" x2="420.1" y2="48.8"/>
    <line x1="427.5" y1="82.4" x2="415.6" y2="55.5"/>
    <line x1="427.5" y1="82.4" x2="403.2" y2="80.3"/>
    <line x1="427.5" y1="82.4" x2="379.8" y2="123.4"/>
    <line x1="427.5" y1="82.4" x2="229.5" y2="212.1"/>
    <line x1="322.0" y1="110.9" x2="367.5" y2="100.7"/>
    <line x1="322.0" y1="110.9" x2="376.2" y2="89.0"/>
    <line x1="322.0" y1="110.9" x2="328.8" y2="109.3"/>
    <line x1="322.0" y1="110.9" x2="274.1" y2="231.8"/>
    <line x1="367.5" y1="100.7" x2="406.4" y2="109.0"/>
    <line x1="367.5" y1="100.7" x2="377.4" y2="42.8"/>
    <line x1="367.5" y1="100.7" x2="415.6" y2="55.5"/>
    <line x1="367.5" y1="100.7" x2="376.2" y2="89.0"/>
    <line x1="367.5" y1="100.7" x2="379.8" y2="123.4"/>
    <line x1="406.4" y1="109.0" x2="398.7" y2="127.3"/>
    <line x1="406.4" y1="109.0" x2="376.2" y2="89.0"/>
    <line x1="406.4" y1="109.0" x2="403.2" y2="80.3"/>
    <line x1="424.6" y1="67.5" x2="420.1" y2="48.8"/>
    <line x1="424.6" y1="67.5" x2="415.6" y2="55.5"/>
    <line x1="424.6" y1="67.5" x2="403.2" y2="80.3"/>
    <line x1="377.4" y1="42.8" x2="208.6" y2="233.5"/>
    <line x1="420.1" y1="48.8" x2="415.6" y2="55.5"/>
    <line x1="420.1" y1="48.8" x2="376.2" y2="89.0"/>
    <line x1="420.1" y1="48.8" x2="403.2" y2="80.3"/>
    <line x1="398.7" y1="127.3" x2="336.4" y2="128.1"/>
    <line x1="398.7" y1="127.3" x2="415.6" y2="55.5"/>
    <line x1="398.7" y1="127.3" x2="403.2" y2="80.3"/>
    <line x1="398.7" y1="127.3" x2="379.8" y2="123.4"/>
    <line x1="327.6" y1="111.8" x2="336.4" y2="128.1"/>
    <line x1="327.6" y1="111.8" x2="328.8" y2="109.3"/>
    <line x1="336.4" y1="128.1" x2="328.8" y2="109.3"/>
    <line x1="336.4" y1="128.1" x2="249.4" y2="235.6"/>
    <line x1="415.6" y1="55.5" x2="403.2" y2="80.3"/>
    <line x1="376.2" y1="89.0" x2="403.2" y2="80.3"/>
    <line x1="376.2" y1="89.0" x2="379.8" y2="123.4"/>
    <line x1="379.8" y1="123.4" x2="328.8" y2="109.3"/>
    <line x1="172.6" y1="404.7" x2="201.2" y2="420.0"/>
    <line x1="172.6" y1="404.7" x2="194.7" y2="408.1"/>
    <line x1="172.6" y1="404.7" x2="221.2" y2="418.8"/>
    <line x1="172.6" y1="404.7" x2="201.6" y2="426.3"/>
    <line x1="172.6" y1="404.7" x2="199.1" y2="390.2"/>
    <line x1="172.6" y1="404.7" x2="190.6" y2="421.3"/>
    <line x1="172.6" y1="404.7" x2="162.4" y2="429.5"/>
    <line x1="172.6" y1="404.7" x2="199.8" y2="420.5"/>
    <line x1="172.6" y1="404.7" x2="198.5" y2="394.9"/>
    <line x1="172.6" y1="404.7" x2="191.6" y2="350.7"/>
    <line x1="172.6" y1="404.7" x2="204.7" y2="412.9"/>
    <line x1="172.6" y1="404.7" x2="151.7" y2="421.8"/>
    <line x1="172.6" y1="404.7" x2="166.1" y2="367.0"/>
    <line x1="239.2" y1="478.3" x2="201.2" y2="420.0"/>
    <line x1="239.2" y1="478.3" x2="243.6" y2="468.2"/>
    <line x1="239.2" y1="478.3" x2="251.5" y2="446.2"/>
    <line x1="239.2" y1="478.3" x2="230.7" y2="393.3"/>
    <line x1="239.2" y1="478.3" x2="241.7" y2="423.7"/>
    <line x1="239.2" y1="478.3" x2="254.7" y2="397.5"/>
    <line x1="239.2" y1="478.3" x2="187.7" y2="472.9"/>
    <line x1="239.2" y1="478.3" x2="73.3" y2="277.5"/>
    <line x1="201.2" y1="420.0" x2="198.9" y2="422.5"/>
    <line x1="201.2" y1="420.0" x2="194.7" y2="408.1"/>
    <line x1="201.2" y1="420.0" x2="223.6" y2="409.7"/>
    <line x1="201.2" y1="420.0" x2="201.6" y2="426.3"/>
    <line x1="201.2" y1="420.0" x2="199.1" y2="390.2"/>
    <line x1="201.2" y1="420.0" x2="230.7" y2="393.3"/>
    <line x1="201.2" y1="420.0" x2="241.7" y2="423.7"/>
    <line x1="201.2" y1="420.0" x2="199.8" y2="420.5"/>
    <line x1="201.2" y1="420.0" x2="204.7" y2="412.9"/>
    <line x1="201.2" y1="420.0" x2="151.7" y2="421.8"/>
    <line x1="198.9" y1="422.5" x2="199.0" y2="460.7"/>
    <line x1="198.9" y1="422.5" x2="194.7" y2="408.1"/>
    <line x1="198.9" y1="422.5" x2="221.2" y2="418.8"/>
    <line x1="198.9" y1="422.5" x2="223.6" y2="409.7"/>
    <line x1="198.9" y1="422.5" x2="201.6" y2="426.3"/>
    <line x1="198.9" y1="422.5" x2="199.1" y2="390.2"/>
    <line x1="198.9" y1="422.5" x2="190.6" y2="421.3"/>
    <line x1="198.9" y1="422.5" x2="241.7" y2="423.7"/>
    <line x1="198.9" y1="422.5" x2="219.4" y2="447.4"/>
    <line x1="198.9" y1="422.5" x2="199.8" y2="420.5"/>
    <line x1="198.9" y1="422.5" x2="198.5" y2="394.9"/>
    <line x1="198.9" y1="422.5" x2="204.7" y2="412.9"/>
    <line x1="276.7" y1="404.9" x2="251.9" y2="394.9"/>
    <line x1="276.7" y1="404.9" x2="190.6" y2="421.3"/>
    <line x1="276.7" y1="404.9" x2="230.7" y2="393.3"/>
    <line x1="276.7" y1="404.9" x2="241.7" y2="423.7"/>
    <line x1="276.7" y1="404.9" x2="254.7" y2="397.5"/>
    <line x1="276.7" y1="404.9" x2="204.7" y2="412.9"/>
    <line x1="199.0" y1="460.7" x2="194.7" y2="408.1"/>
    <line x1="199.0" y1="460.7" x2="201.6" y2="426.3"/>
    <line x1="199.0" y1="460.7" x2="251.5" y2="446.2"/>
    <line x1="199.0" y1="460.7" x2="230.9" y2="489.0"/>
    <line x1="199.0" y1="460.7" x2="187.7" y2="472.9"/>
    <line x1="199.0" y1="460.7" x2="219.4" y2="447.4"/>
    <line x1="251.9" y1="394.9" x2="221.2" y2="418.8"/>
    <line x1="251.9" y1="394.9" x2="223.6" y2="409.7"/>
    <line x1="251.9" y1="394.9" x2="241.7" y2="423.7"/>
    <line x1="251.9" y1="394.9" x2="254.7" y2="397.5"/>
    <line x1="251.9" y1="394.9" x2="219.4" y2="447.4"/>
    <line x1="251.9" y1="394.9" x2="204.7" y2="412.9"/>
    <line x1="251.9" y1="394.9" x2="349.3" y2="427.2"/>
    <line x1="251.9" y1="394.9" x2="213.0" y2="273.0"/>
    <line x1="194.7" y1="408.1" x2="199.1" y2="390.2"/>
    <line x1="194.7" y1="408.1" x2="230.7" y2="393.3"/>
    <line x1="194.7" y1="408.1" x2="199.8" y2="420.5"/>
    <line x1="194.7" y1="408.1" x2="198.5" y2="394.9"/>
    <line x1="194.7" y1="408.1" x2="204.7" y2="412.9"/>
    <line x1="221.2" y1="418.8" x2="223.6" y2="409.7"/>
    <line x1="221.2" y1="418.8" x2="199.1" y2="390.2"/>
    <line x1="221.2" y1="418.8" x2="251.5" y2="446.2"/>
    <line x1="221.2" y1="418.8" x2="190.6" y2="421.3"/>
    <line x1="221.2" y1="418.8" x2="241.7" y2="423.7"/>
    <line x1="221.2" y1="418.8" x2="254.7" y2="397.5"/>
    <line x1="221.2" y1="418.8" x2="199.8" y2="420.5"/>
    <line x1="221.2" y1="418.8" x2="198.5" y2="394.9"/>
    <line x1="223.6" y1="409.7" x2="201.6" y2="426.3"/>
    <line x1="223.6" y1="409.7" x2="199.1" y2="390.2"/>
    <line x1="223.6" y1="409.7" x2="190.6" y2="421.3"/>
    <line x1="223.6" y1="409.7" x2="230.9" y2="489.0"/>
    <line x1="223.6" y1="409.7" x2="230.7" y2="393.3"/>
    <line x1="223.6" y1="409.7" x2="241.7" y2="423.7"/>
    <line x1="223.6" y1="409.7" x2="254.7" y2="397.5"/>
    <line x1="223.6" y1="409.7" x2="219.4" y2="447.4"/>
    <line x1="223.6" y1="409.7" x2="204.7" y2="412.9"/>
    <line x1="223.6" y1="409.7" x2="213.0" y2="273.0"/>
    <line x1="201.6" y1="426.3" x2="199.1" y2="390.2"/>
    <line x1="201.6" y1="426.3" x2="243.6" y2="468.2"/>
    <line x1="201.6" y1="426.3" x2="162.4" y2="429.5"/>
    <line x1="201.6" y1="426.3" x2="241.7" y2="423.7"/>
    <line x1="201.6" y1="426.3" x2="254.7" y2="397.5"/>
    <line x1="201.6" y1="426.3" x2="198.5" y2="394.9"/>
    <line x1="201.6" y1="426.3" x2="191.6" y2="350.7"/>
    <line x1="201.6" y1="426.3" x2="204.7" y2="412.9"/>
    <line x1="201.6" y1="426.3" x2="166.1" y2="367.0"/>
    <line x1="199.1" y1="390.2" x2="190.6" y2="421.3"/>
    <line x1="199.1" y1="390.2" x2="230.7" y2="393.3"/>
    <line x1="199.1" y1="390.2" x2="241.7" y2="423.7"/>
    <line x1="199.1" y1="390.2" x2="199.8" y2="420.5"/>
    <line x1="199.1" y1="390.2" x2="151.7" y2="421.8"/>
    <line x1="199.1" y1="390.2" x2="407.0" y2="391.5"/>
    <line x1="243.6" y1="468.2" x2="251.5" y2="446.2"/>
    <line x1="243.6" y1="468.2" x2="162.4" y2="429.5"/>
    <line x1="243.6" y1="468.2" x2="230.9" y2="489.0"/>
    <line x1="243.6" y1="468.2" x2="169.0" y2="357.3"/>
    <line x1="243.6" y1="468.2" x2="166.1" y2="367.0"/>
    <line x1="243.6" y1="468.2" x2="358.6" y2="393.3"/>
    <line x1="251.5" y1="446.2" x2="241.7" y2="423.7"/>
    <line x1="251.5" y1="446.2" x2="403.4" y2="372.5"/>
    <line x1="190.6" y1="421.3" x2="162.4" y2="429.5"/>
    <line x1="190.6" y1="421.3" x2="169.0" y2="357.3"/>
    <line x1="190.6" y1="421.3" x2="241.7" y2="423.7"/>
    <line x1="190.6" y1="421.3" x2="254.7" y2="397.5"/>
    <line x1="190.6" y1="421.3" x2="187.7" y2="472.9"/>
    <line x1="190.6" y1="421.3" x2="219.4" y2="447.4"/>
    <line x1="190.6" y1="421.3" x2="199.8" y2="420.5"/>
    <line x1="190.6" y1="421.3" x2="198.5" y2="394.9"/>
    <line x1="190.6" y1="421.3" x2="204.7" y2="412.9"/>
    <line x1="190.6" y1="421.3" x2="151.7" y2="421.8"/>
    <line x1="162.4" y1="429.5" x2="230.7" y2="393.3"/>
    <line x1="162.4" y1="429.5" x2="241.7" y2="423.7"/>
    <line x1="162.4" y1="429.5" x2="199.8" y2="420.5"/>
    <line x1="162.4" y1="429.5" x2="204.7" y2="412.9"/>
    <line x1="162.4" y1="429.5" x2="151.7" y2="421.8"/>
    <line x1="230.9" y1="489.0" x2="199.8" y2="420.5"/>
    <line x1="230.9" y1="489.0" x2="349.3" y2="427.2"/>
    <line x1="230.7" y1="393.3" x2="219.4" y2="447.4"/>
    <line x1="230.7" y1="393.3" x2="198.5" y2="394.9"/>
    <line x1="230.7" y1="393.3" x2="204.7" y2="412.9"/>
    <line x1="169.0" y1="357.3" x2="191.6" y2="350.7"/>
    <line x1="169.0" y1="357.3" x2="204.7" y2="412.9"/>
    <line x1="169.0" y1="357.3" x2="166.1" y2="367.0"/>
    <line x1="169.0" y1="357.3" x2="68.8" y2="265.2"/>
    <line x1="241.7" y1="423.7" x2="254.7" y2="397.5"/>
    <line x1="241.7" y1="423.7" x2="219.4" y2="447.4"/>
    <line x1="187.7" y1="472.9" x2="204.7" y2="412.9"/>
    <line x1="219.4" y1="447.4" x2="199.8" y2="420.5"/>
    <line x1="219.4" y1="447.4" x2="204.7" y2="412.9"/>
    <line x1="199.8" y1="420.5" x2="198.5" y2="394.9"/>
    <line x1="191.6" y1="350.7" x2="82.1" y2="291.9"/>
    <line x1="191.6" y1="350.7" x2="220.9" y2="225.2"/>
    <line x1="404.5" y1="374.9" x2="398.8" y2="383.8"/>
    <line x1="404.5" y1="374.9" x2="403.9" y2="356.3"/>
    <line x1="404.5" y1="374.9" x2="402.1" y2="382.4"/>
    <line x1="404.5" y1="374.9" x2="403.4" y2="372.5"/>
    <line x1="404.5" y1="374.9" x2="354.3" y2="397.2"/>
    <line x1="404.5" y1="374.9" x2="399.9" y2="380.9"/>
    <line x1="404.5" y1="374.9" x2="387.1" y2="351.7"/>
    <line x1="404.5" y1="374.9" x2="390.9" y2="372.1"/>
    <line x1="404.5" y1="374.9" x2="416.4" y2="385.4"/>
    <line x1="445.7" y1="430.3" x2="398.8" y2="383.8"/>
    <line x1="445.7" y1="430.3" x2="399.9" y2="380.9"/>
    <line x1="445.7" y1="430.3" x2="416.4" y2="385.4"/>
    <line x1="457.3" y1="387.8" x2="390.9" y2="372.1"/>
    <line x1="457.3" y1="387.8" x2="410.4" y2="379.1"/>
    <line x1="457.3" y1="387.8" x2="233.7" y2="225.8"/>
    <line x1="398.8" y1="383.8" x2="403.9" y2="356.3"/>
    <line x1="398.8" y1="383.8" x2="402.1" y2="382.4"/>
    <line x1="398.8" y1="383.8" x2="399.5" y2="369.1"/>
    <line x1="398.8" y1="383.8" x2="399.9" y2="380.9"/>
    <line x1="398.8" y1="383.8" x2="390.9" y2="372.1"/>
    <line x1="403.9" y1="356.3" x2="400.0" y2="379.1"/>
    <line x1="403.9" y1="356.3" x2="399.1" y2="341.5"/>
    <line x1="403.9" y1="356.3" x2="407.0" y2="391.5"/>
    <line x1="403.9" y1="356.3" x2="399.5" y2="369.1"/>
    <line x1="403.9" y1="356.3" x2="403.4" y2="372.5"/>
    <line x1="403.9" y1="356.3" x2="399.9" y2="380.9"/>
    <line x1="403.9" y1="356.3" x2="387.1" y2="351.7"/>
    <line x1="403.9" y1="356.3" x2="390.9" y2="372.1"/>
    <line x1="403.9" y1="356.3" x2="416.4" y2="385.4"/>
    <line x1="403.9" y1="356.3" x2="256.2" y2="249.6"/>
    <line x1="400.0" y1="379.1" x2="407.0" y2="391.5"/>
    <line x1="400.0" y1="379.1" x2="402.1" y2="382.4"/>
    <line x1="400.0" y1="379.1" x2="399.5" y2="369.1"/>
    <line x1="400.0" y1="379.1" x2="403.4" y2="372.5"/>
    <line x1="400.0" y1="379.1" x2="387.1" y2="351.7"/>
    <line x1="400.0" y1="379.1" x2="390.9" y2="372.1"/>
    <line x1="400.0" y1="379.1" x2="416.4" y2="385.4"/>
    <line x1="400.0" y1="379.1" x2="410.4" y2="379.1"/>
    <line x1="358.6" y1="393.3" x2="402.1" y2="382.4"/>
    <line x1="358.6" y1="393.3" x2="354.3" y2="397.2"/>
    <line x1="358.6" y1="393.3" x2="390.9" y2="372.1"/>
    <line x1="358.6" y1="393.3" x2="349.3" y2="427.2"/>
    <line x1="399.1" y1="341.5" x2="399.5" y2="369.1"/>
    <line x1="399.1" y1="341.5" x2="403.4" y2="372.5"/>
    <line x1="399.1" y1="341.5" x2="354.3" y2="397.2"/>
    <line x1="399.1" y1="341.5" x2="399.9" y2="380.9"/>
    <line x1="399.1" y1="341.5" x2="387.1" y2="351.7"/>
    <line x1="399.1" y1="341.5" x2="390.9" y2="372.1"/>
    <line x1="407.0" y1="391.5" x2="399.5" y2="369.1"/>
    <line x1="407.0" y1="391.5" x2="403.4" y2="372.5"/>
    <line x1="407.0" y1="391.5" x2="399.9" y2="380.9"/>
    <line x1="407.0" y1="391.5" x2="390.9" y2="372.1"/>
    <line x1="407.0" y1="391.5" x2="349.3" y2="427.2"/>
    <line x1="407.0" y1="391.5" x2="416.4" y2="385.4"/>
    <line x1="407.0" y1="391.5" x2="410.4" y2="379.1"/>
    <line x1="407.0" y1="391.5" x2="229.5" y2="212.1"/>
    <line x1="402.1" y1="382.4" x2="399.5" y2="369.1"/>
    <line x1="402.1" y1="382.4" x2="403.4" y2="372.5"/>
    <line x1="402.1" y1="382.4" x2="390.9" y2="372.1"/>
    <line x1="402.1" y1="382.4" x2="416.4" y2="385.4"/>
    <line x1="402.1" y1="382.4" x2="410.4" y2="379.1"/>
    <line x1="399.5" y1="369.1" x2="403.4" y2="372.5"/>
    <line x1="399.5" y1="369.1" x2="399.9" y2="380.9"/>
    <line x1="399.5" y1="369.1" x2="387.1" y2="351.7"/>
    <line x1="399.5" y1="369.1" x2="390.9" y2="372.1"/>
    <line x1="399.5" y1="369.1" x2="349.3" y2="427.2"/>
    <line x1="399.5" y1="369.1" x2="416.4" y2="385.4"/>
    <line x1="399.5" y1="369.1" x2="410.4" y2="379.1"/>
    <line x1="403.4" y1="372.5" x2="399.9" y2="380.9"/>
    <line x1="403.4" y1="372.5" x2="390.9" y2="372.1"/>
    <line x1="354.3" y1="397.2" x2="399.9" y2="380.9"/>
    <line x1="354.3" y1="397.2" x2="349.3" y2="427.2"/>
    <line x1="399.9" y1="380.9" x2="387.1" y2="351.7"/>
    <line x1="399.9" y1="380.9" x2="394.2" y2="430.6"/>
    <line x1="399.9" y1="380.9" x2="416.4" y2="385.4"/>
    <line x1="399.9" y1="380.9" x2="410.4" y2="379.1"/>
    <line x1="399.9" y1="380.9" x2="229.5" y2="212.1"/>
    <line x1="387.1" y1="351.7" x2="410.4" y2="379.1"/>
    <line x1="394.2" y1="430.6" x2="349.3" y2="427.2"/>
    <line x1="394.2" y1="430.6" x2="416.4" y2="385.4"/>
    <line x1="390.9" y1="372.1" x2="416.4" y2="385.4"/>
    <line x1="390.9" y1="372.1" x2="410.4" y2="379.1"/>
    <line x1="349.3" y1="427.2" x2="410.4" y2="379.1"/>
    <line x1="349.3" y1="427.2" x2="82.1" y2="291.9"/>
    <line x1="416.4" y1="385.4" x2="410.4" y2="379.1"/>
    <line x1="42.7" y1="300.7" x2="68.4" y2="288.1"/>
    <line x1="42.7" y1="300.7" x2="35.2" y2="318.5"/>
    <line x1="42.7" y1="300.7" x2="73.3" y2="277.5"/>
    <line x1="42.7" y1="300.7" x2="62.8" y2="267.7"/>
    <line x1="42.7" y1="300.7" x2="93.1" y2="275.4"/>
    <line x1="80.7" y1="284.3" x2="68.8" y2="265.2"/>
    <line x1="80.7" y1="284.3" x2="58.0" y2="233.8"/>
    <line x1="80.7" y1="284.3" x2="68.4" y2="288.1"/>
    <line x1="80.7" y1="284.3" x2="87.3" y2="248.9"/>
    <line x1="80.7" y1="284.3" x2="62.8" y2="267.7"/>
    <line x1="80.7" y1="284.3" x2="93.1" y2="275.4"/>
    <line x1="68.8" y1="265.2" x2="87.3" y2="248.9"/>
    <line x1="68.8" y1="265.2" x2="73.3" y2="277.5"/>
    <line x1="68.8" y1="265.2" x2="62.8" y2="267.7"/>
    <line x1="95.0" y1="243.4" x2="58.0" y2="233.8"/>
    <line x1="95.0" y1="243.4" x2="87.3" y2="248.9"/>
    <line x1="58.0" y1="233.8" x2="87.3" y2="248.9"/>
    <line x1="58.0" y1="233.8" x2="55.1" y2="261.0"/>
    <line x1="58.0" y1="233.8" x2="62.8" y2="267.7"/>
    <line x1="60.1" y1="315.0" x2="68.4" y2="288.1"/>
    <line x1="60.1" y1="315.0" x2="35.2" y2="318.5"/>
    <line x1="60.1" y1="315.0" x2="55.1" y2="261.0"/>
    <line x1="60.1" y1="315.0" x2="73.3" y2="277.5"/>
    <line x1="60.1" y1="315.0" x2="82.1" y2="291.9"/>
    <line x1="68.4" y1="288.1" x2="87.3" y2="248.9"/>
    <line x1="68.4" y1="288.1" x2="73.3" y2="277.5"/>
    <line x1="68.4" y1="288.1" x2="62.8" y2="267.7"/>
    <line x1="68.4" y1="288.1" x2="93.1" y2="275.4"/>
    <line x1="87.3" y1="248.9" x2="55.1" y2="261.0"/>
    <line x1="87.3" y1="248.9" x2="73.3" y2="277.5"/>
    <line x1="87.3" y1="248.9" x2="62.8" y2="267.7"/>
    <line x1="87.3" y1="248.9" x2="93.1" y2="275.4"/>
    <line x1="35.2" y1="318.5" x2="62.8" y2="267.7"/>
    <line x1="125.7" y1="257.0" x2="93.1" y2="275.4"/>
    <line x1="125.7" y1="257.0" x2="82.1" y2="291.9"/>
    <line x1="125.7" y1="257.0" x2="249.4" y2="235.6"/>
    <line x1="55.1" y1="261.0" x2="93.1" y2="275.4"/>
    <line x1="73.3" y1="277.5" x2="62.8" y2="267.7"/>
    <line x1="73.3" y1="277.5" x2="93.1" y2="275.4"/>
    <line x1="93.1" y1="275.4" x2="82.1" y2="291.9"/>
    <line x1="208.6" y1="233.5" x2="245.7" y2="232.9"/>
    <line x1="208.6" y1="233.5" x2="229.5" y2="212.1"/>
    <line x1="208.6" y1="233.5" x2="213.0" y2="273.0"/>
    <line x1="208.6" y1="233.5" x2="226.4" y2="226.1"/>
    <line x1="208.6" y1="233.5" x2="269.0" y2="271.7"/>
    <line x1="208.6" y1="233.5" x2="265.4" y2="219.7"/>
    <line x1="208.6" y1="233.5" x2="220.9" y2="225.2"/>
    <line x1="249.4" y1="235.6" x2="285.9" y2="220.0"/>
    <line x1="249.4" y1="235.6" x2="245.7" y2="232.9"/>
    <line x1="249.4" y1="235.6" x2="233.7" y2="225.8"/>
    <line x1="249.4" y1="235.6" x2="256.4" y2="247.8"/>
    <line x1="249.4" y1="235.6" x2="229.5" y2="212.1"/>
    <line x1="249.4" y1="235.6" x2="305.8" y2="269.7"/>
    <line x1="249.4" y1="235.6" x2="261.8" y2="249.2"/>
    <line x1="249.4" y1="235.6" x2="226.4" y2="226.1"/>
    <line x1="249.4" y1="235.6" x2="256.2" y2="249.6"/>
    <line x1="249.4" y1="235.6" x2="220.9" y2="225.2"/>
    <line x1="249.4" y1="235.6" x2="262.3" y2="251.6"/>
    <line x1="279.2" y1="203.9" x2="285.9" y2="220.0"/>
    <line x1="279.2" y1="203.9" x2="229.5" y2="212.1"/>
    <line x1="279.2" y1="203.9" x2="265.4" y2="219.7"/>
    <line x1="279.2" y1="203.9" x2="256.2" y2="249.6"/>
    <line x1="279.2" y1="203.9" x2="220.9" y2="225.2"/>
    <line x1="285.9" y1="220.0" x2="256.4" y2="247.8"/>
    <line x1="285.9" y1="220.0" x2="274.1" y2="231.8"/>
    <line x1="285.9" y1="220.0" x2="261.8" y2="249.2"/>
    <line x1="285.9" y1="220.0" x2="262.3" y2="251.6"/>
    <line x1="285.9" y1="220.0" x2="294.9" y2="230.2"/>
    <line x1="245.7" y1="232.9" x2="233.7" y2="225.8"/>
    <line x1="245.7" y1="232.9" x2="256.4" y2="247.8"/>
    <line x1="245.7" y1="232.9" x2="229.5" y2="212.1"/>
    <line x1="245.7" y1="232.9" x2="239.2" y2="269.0"/>
    <line x1="245.7" y1="232.9" x2="274.1" y2="231.8"/>
    <line x1="245.7" y1="232.9" x2="261.8" y2="249.2"/>
    <line x1="245.7" y1="232.9" x2="226.4" y2="226.1"/>
    <line x1="245.7" y1="232.9" x2="256.2" y2="249.6"/>
    <line x1="245.7" y1="232.9" x2="262.3" y2="251.6"/>
    <line x1="233.7" y1="225.8" x2="229.5" y2="212.1"/>
    <line x1="233.7" y1="225.8" x2="261.8" y2="249.2"/>
    <line x1="233.7" y1="225.8" x2="226.4" y2="226.1"/>
    <line x1="233.7" y1="225.8" x2="265.4" y2="219.7"/>
    <line x1="233.7" y1="225.8" x2="256.2" y2="249.6"/>
    <line x1="233.7" y1="225.8" x2="220.9" y2="225.2"/>
    <line x1="233.7" y1="225.8" x2="262.3" y2="251.6"/>
    <line x1="256.4" y1="247.8" x2="274.1" y2="231.8"/>
    <line x1="256.4" y1="247.8" x2="261.8" y2="249.2"/>
    <line x1="256.4" y1="247.8" x2="213.0" y2="273.0"/>
    <line x1="256.4" y1="247.8" x2="226.4" y2="226.1"/>
    <line x1="256.4" y1="247.8" x2="269.0" y2="271.7"/>
    <line x1="256.4" y1="247.8" x2="256.2" y2="249.6"/>
    <line x1="256.4" y1="247.8" x2="220.9" y2="225.2"/>
    <line x1="256.4" y1="247.8" x2="262.3" y2="251.6"/>
    <line x1="229.5" y1="212.1" x2="256.2" y2="249.6"/>
    <line x1="229.5" y1="212.1" x2="220.9" y2="225.2"/>
    <line x1="239.2" y1="269.0" x2="226.4" y2="226.1"/>
    <line x1="239.2" y1="269.0" x2="269.0" y2="271.7"/>
    <line x1="239.2" y1="269.0" x2="256.2" y2="249.6"/>
    <line x1="239.2" y1="269.0" x2="262.3" y2="251.6"/>
    <line x1="274.1" y1="231.8" x2="265.4" y2="219.7"/>
    <line x1="274.1" y1="231.8" x2="256.2" y2="249.6"/>
    <line x1="274.1" y1="231.8" x2="220.9" y2="225.2"/>
    <line x1="274.1" y1="231.8" x2="262.3" y2="251.6"/>
    <line x1="274.1" y1="231.8" x2="294.9" y2="230.2"/>
    <line x1="305.8" y1="269.7" x2="261.8" y2="249.2"/>
    <line x1="305.8" y1="269.7" x2="269.0" y2="271.7"/>
    <line x1="261.8" y1="249.2" x2="269.0" y2="271.7"/>
    <line x1="261.8" y1="249.2" x2="265.4" y2="219.7"/>
    <line x1="261.8" y1="249.2" x2="256.2" y2="249.6"/>
    <line x1="261.8" y1="249.2" x2="294.9" y2="230.2"/>
    <line x1="213.0" y1="273.0" x2="265.4" y2="219.7"/>
    <line x1="226.4" y1="226.1" x2="265.4" y2="219.7"/>
    <line x1="226.4" y1="226.1" x2="220.9" y2="225.2"/>
    <line x1="269.0" y1="271.7" x2="256.2" y2="249.6"/>
    <line x1="269.0" y1="271.7" x2="262.3" y2="251.6"/>
    <line x1="265.4" y1="219.7" x2="262.3" y2="251.6"/>
    <line x1="256.2" y1="249.6" x2="262.3" y2="251.6"/>
    <line x1="262.3" y1="251.6" x2="294.9" y2="230.2"/>
  </g>
  <g fill="#161618">
    <circle cx="60.6" cy="98.2" r="3.7"/>
    <circle cx="101.6" cy="102.8" r="5.8"/>
    <circle cx="67.2" cy="94.9" r="6.4"/>
    <circle cx="69.1" cy="164.9" r="5.9"/>
    <circle cx="136.1" cy="118.3" r="4.6"/>
    <circle cx="124.1" cy="113.3" r="3.9"/>
    <circle cx="135.4" cy="111.5" r="3.8"/>
    <circle cx="74.0" cy="108.9" r="6.2"/>
    <circle cx="122.7" cy="50.4" r="6.9"/>
    <circle cx="124.9" cy="153.9" r="3.5"/>
    <circle cx="145.2" cy="101.0" r="4.9"/>
    <circle cx="115.0" cy="115.8" r="4.1"/>
    <circle cx="112.7" cy="77.7" r="5.2"/>
    <circle cx="104.0" cy="86.9" r="6.5"/>
    <circle cx="144.1" cy="95.0" r="6.5"/>
    <circle cx="145.3" cy="92.2" r="5.3"/>
    <circle cx="109.6" cy="108.8" r="4.5"/>
    <circle cx="99.5" cy="178.6" r="4.7"/>
    <circle cx="85.1" cy="163.6" r="6.7"/>
    <circle cx="135.8" cy="174.3" r="6.5"/>
    <circle cx="108.4" cy="138.3" r="6.4"/>
    <circle cx="95.2" cy="173.3" r="3.8"/>
    <circle cx="128.2" cy="58.4" r="4.0"/>
    <circle cx="104.8" cy="116.8" r="4.9"/>
    <circle cx="138.1" cy="126.6" r="6.6"/>
    <circle cx="381.4" cy="100.6" r="3.6"/>
    <circle cx="440.9" cy="77.9" r="3.8"/>
    <circle cx="350.0" cy="48.4" r="5.2"/>
    <circle cx="391.7" cy="103.6" r="5.0"/>
    <circle cx="379.7" cy="61.1" r="5.8"/>
    <circle cx="366.2" cy="81.1" r="6.0"/>
    <circle cx="382.2" cy="101.5" r="4.9"/>
    <circle cx="366.6" cy="93.0" r="6.8"/>
    <circle cx="325.3" cy="103.8" r="5.3"/>
    <circle cx="450.8" cy="93.3" r="6.7"/>
    <circle cx="389.6" cy="51.4" r="3.6"/>
    <circle cx="310.1" cy="71.3" r="3.9"/>
    <circle cx="393.0" cy="110.6" r="5.9"/>
    <circle cx="396.2" cy="106.4" r="4.2"/>
    <circle cx="378.0" cy="100.0" r="6.4"/>
    <circle cx="427.5" cy="82.4" r="5.7"/>
    <circle cx="322.0" cy="110.9" r="6.2"/>
    <circle cx="367.5" cy="100.7" r="3.7"/>
    <circle cx="406.4" cy="109.0" r="5.6"/>
    <circle cx="424.6" cy="67.5" r="4.7"/>
    <circle cx="377.4" cy="42.8" r="6.4"/>
    <circle cx="420.1" cy="48.8" r="3.7"/>
    <circle cx="398.7" cy="127.3" r="5.0"/>
    <circle cx="327.6" cy="111.8" r="5.5"/>
    <circle cx="336.4" cy="128.1" r="5.4"/>
    <circle cx="415.6" cy="55.5" r="5.3"/>
    <circle cx="376.2" cy="89.0" r="4.1"/>
    <circle cx="403.2" cy="80.3" r="3.7"/>
    <circle cx="379.8" cy="123.4" r="6.5"/>
    <circle cx="328.8" cy="109.3" r="6.2"/>
    <circle cx="172.6" cy="404.7" r="5.4"/>
    <circle cx="239.2" cy="478.3" r="4.6"/>
    <circle cx="201.2" cy="420.0" r="6.6"/>
    <circle cx="198.9" cy="422.5" r="4.1"/>
    <circle cx="276.7" cy="404.9" r="4.2"/>
    <circle cx="265.4" cy="464.3" r="6.6"/>
    <circle cx="199.0" cy="460.7" r="3.9"/>
    <circle cx="251.9" cy="394.9" r="4.7"/>
    <circle cx="194.7" cy="408.1" r="4.1"/>
    <circle cx="221.2" cy="418.8" r="6.6"/>
    <circle cx="223.6" cy="409.7" r="5.3"/>
    <circle cx="201.6" cy="426.3" r="5.7"/>
    <circle cx="199.1" cy="390.2" r="3.5"/>
    <circle cx="243.6" cy="468.2" r="3.8"/>
    <circle cx="251.5" cy="446.2" r="3.8"/>
    <circle cx="190.6" cy="421.3" r="4.9"/>
    <circle cx="162.4" cy="429.5" r="3.7"/>
    <circle cx="230.9" cy="489.0" r="7.0"/>
    <circle cx="230.7" cy="393.3" r="6.3"/>
    <circle cx="169.0" cy="357.3" r="4.0"/>
    <circle cx="241.7" cy="423.7" r="6.9"/>
    <circle cx="254.7" cy="397.5" r="4.3"/>
    <circle cx="187.7" cy="472.9" r="6.6"/>
    <circle cx="219.4" cy="447.4" r="3.9"/>
    <circle cx="199.8" cy="420.5" r="5.5"/>
    <circle cx="198.5" cy="394.9" r="5.5"/>
    <circle cx="191.6" cy="350.7" r="6.2"/>
    <circle cx="204.7" cy="412.9" r="3.9"/>
    <circle cx="151.7" cy="421.8" r="6.0"/>
    <circle cx="166.1" cy="367.0" r="6.7"/>
    <circle cx="404.5" cy="374.9" r="5.1"/>
    <circle cx="445.7" cy="430.3" r="5.3"/>
    <circle cx="457.3" cy="387.8" r="6.6"/>
    <circle cx="398.8" cy="383.8" r="5.6"/>
    <circle cx="403.9" cy="356.3" r="6.6"/>
    <circle cx="400.0" cy="379.1" r="5.1"/>
    <circle cx="358.6" cy="393.3" r="5.3"/>
    <circle cx="399.1" cy="341.5" r="4.3"/>
    <circle cx="407.0" cy="391.5" r="6.8"/>
    <circle cx="402.1" cy="382.4" r="4.0"/>
    <circle cx="399.5" cy="369.1" r="5.2"/>
    <circle cx="403.4" cy="372.5" r="6.8"/>
    <circle cx="354.3" cy="397.2" r="6.6"/>
    <circle cx="399.9" cy="380.9" r="3.7"/>
    <circle cx="387.1" cy="351.7" r="5.1"/>
    <circle cx="394.2" cy="430.6" r="6.4"/>
    <circle cx="390.9" cy="372.1" r="6.0"/>
    <circle cx="349.3" cy="427.2" r="5.1"/>
    <circle cx="416.4" cy="385.4" r="3.7"/>
    <circle cx="410.4" cy="379.1" r="6.5"/>
    <circle cx="42.7" cy="300.7" r="6.9"/>
    <circle cx="80.7" cy="284.3" r="4.8"/>
    <circle cx="68.8" cy="265.2" r="4.9"/>
    <circle cx="95.0" cy="243.4" r="4.7"/>
    <circle cx="58.0" cy="233.8" r="5.6"/>
    <circle cx="60.1" cy="315.0" r="5.6"/>
    <circle cx="68.4" cy="288.1" r="6.1"/>
    <circle cx="87.3" cy="248.9" r="5.2"/>
    <circle cx="35.2" cy="318.5" r="3.9"/>
    <circle cx="125.7" cy="257.0" r="6.8"/>
    <circle cx="55.1" cy="261.0" r="4.5"/>
    <circle cx="73.3" cy="277.5" r="5.2"/>
    <circle cx="62.8" cy="267.7" r="4.8"/>
    <circle cx="93.1" cy="275.4" r="5.9"/>
    <circle cx="82.1" cy="291.9" r="3.9"/>
    <circle cx="208.6" cy="233.5" r="4.9"/>
    <circle cx="249.4" cy="235.6" r="3.7"/>
    <circle cx="279.2" cy="203.9" r="6.5"/>
    <circle cx="285.9" cy="220.0" r="5.5"/>
    <circle cx="245.7" cy="232.9" r="7.0"/>
    <circle cx="233.7" cy="225.8" r="4.2"/>
    <circle cx="256.4" cy="247.8" r="4.4"/>
    <circle cx="229.5" cy="212.1" r="6.0"/>
    <circle cx="239.2" cy="269.0" r="6.6"/>
    <circle cx="274.1" cy="231.8" r="6.5"/>
    <circle cx="305.8" cy="269.7" r="4.3"/>
    <circle cx="261.8" cy="249.2" r="4.9"/>
    <circle cx="213.0" cy="273.0" r="6.4"/>
    <circle cx="226.4" cy="226.1" r="4.4"/>
    <circle cx="269.0" cy="271.7" r="5.5"/>
    <circle cx="265.4" cy="219.7" r="3.7"/>
    <circle cx="256.2" cy="249.6" r="5.4"/>
    <circle cx="220.9" cy="225.2" r="6.6"/>
    <circle cx="262.3" cy="251.6" r="6.5"/>
    <circle cx="294.9" cy="230.2" r="5.5"/>
  </g>
</svg>